<?xml version="1.0" encoding="iso-8859-1"?>
<!-- Generator: Adobe Illustrator 19.0.0, SVG Export Plug-In . SVG Version: 6.00 Build 0)  -->
<svg version="1.1" id="Layer_1" xmlns="http://www.w3.org/2000/svg" xmlns:xlink="http://www.w3.org/1999/xlink" x="0px" y="0px"
	 viewBox="0 0 512.001 512.001" style="enable-background:new 0 0 512.001 512.001;" xml:space="preserve">
<g>
	<g>
		<path d="M256.001,0.001C114.841,0.001,0,114.842,0,256.001s114.841,255.999,256.001,255.999S512,397.16,512.001,256
			C512.001,114.842,397.16,0.001,256.001,0.001z M256.001,493.703c-131.069,0-237.702-106.632-237.702-237.702
			S124.932,18.3,256.001,18.3c131.068,0,237.7,106.632,237.702,237.702C493.702,387.07,387.07,493.703,256.001,493.703z"/>
	</g>
</g>
<g>
	<g>
		<path d="M206.505,228.673c-11.6-19.415-32.028-31.007-54.646-31.007s-43.046,11.591-54.646,31.007
			c-2.591,4.338-1.176,9.955,3.162,12.547c4.339,2.594,9.957,1.176,12.547-3.162c8.265-13.834,22.821-22.094,38.937-22.094
			c16.115,0,30.672,8.26,38.937,22.094c1.713,2.867,4.748,4.458,7.862,4.458c1.596,0,3.215-0.418,4.685-1.296
			C207.681,238.629,209.096,233.011,206.505,228.673z"/>
	</g>
</g>
<g>
	<g>
		<path d="M414.788,228.673c-11.602-19.415-32.029-31.007-54.647-31.007c-22.617,0-43.044,11.592-54.645,31.007
			c-2.591,4.338-1.176,9.955,3.162,12.547c4.338,2.594,9.956,1.176,12.547-3.162c8.265-13.834,22.82-22.094,38.936-22.094
			c16.117,0,30.673,8.26,38.938,22.094c1.713,2.867,4.748,4.458,7.862,4.458c1.597,0,3.215-0.418,4.685-1.296
			C415.964,238.629,417.379,233.011,414.788,228.673z"/>
	</g>
</g>
<g>
	<g>
		<path d="M297.655,331.021c7.986-6.901,13.046-17.099,13.046-28.456c0-20.735-16.869-37.605-37.606-37.605
			c-5.054,0-9.15,4.097-9.15,9.15c0,5.053,4.095,9.15,9.15,9.15c10.645,0,19.307,8.66,19.307,19.306
			c0,10.645-8.66,19.307-19.307,19.307c-5.054,0-9.15,4.097-9.15,9.15s4.095,9.15,9.15,9.15c10.645,0,19.307,8.662,19.307,19.307
			s-8.66,19.306-19.307,19.306c-5.054,0-9.15,4.097-9.15,9.15s4.095,9.15,9.15,9.15c20.737,0,37.607-16.869,37.606-37.605
			C310.701,348.12,305.641,337.923,297.655,331.021z"/>
	</g>
</g>
<g>
</g>
<g>
</g>
<g>
</g>
<g>
</g>
<g>
</g>
<g>
</g>
<g>
</g>
<g>
</g>
<g>
</g>
<g>
</g>
<g>
</g>
<g>
</g>
<g>
</g>
<g>
</g>
<g>
</g>
</svg>
