<?xml version="1.0" encoding="iso-8859-1"?>
<!-- Generator: Adobe Illustrator 19.0.0, SVG Export Plug-In . SVG Version: 6.00 Build 0)  -->
<svg version="1.1" id="Layer_1" xmlns="http://www.w3.org/2000/svg" xmlns:xlink="http://www.w3.org/1999/xlink" x="0px" y="0px"
	 viewBox="0 0 512.001 512.001" style="enable-background:new 0 0 512.001 512.001;" xml:space="preserve">
<g>
	<g>
		<path d="M256.001,0C114.842,0,0.001,114.841,0.001,256.001s114.841,256.001,256.001,256.001
			c141.158,0,255.999-114.841,255.999-256.001S397.159,0,256.001,0z M256.001,493.701c-131.069,0-237.702-106.631-237.702-237.7
			S124.932,18.299,256.001,18.299c131.068,0,237.7,106.632,237.7,237.702S387.069,493.701,256.001,493.701z"/>
	</g>
</g>
<g>
	<g>
		<path d="M146.725,221.37c-18.666,0-33.852,15.186-33.852,33.852c0,18.666,15.186,33.852,33.852,33.852
			c18.666,0,33.852-15.186,33.852-33.852S165.391,221.37,146.725,221.37z"/>
	</g>
</g>
<g>
	<g>
		<path d="M365.277,221.37c-18.666,0-33.852,15.186-33.852,33.852c0,18.666,15.186,33.852,33.852,33.852
			s33.852-15.186,33.852-33.852C399.129,236.556,383.942,221.37,365.277,221.37z"/>
	</g>
</g>
<g>
	<g>
		<path d="M419.923,179.598c-11.6-19.414-32.03-31.006-54.646-31.006c-22.618,0-43.046,11.592-54.646,31.007
			c-2.592,4.338-1.176,9.956,3.162,12.547c4.341,2.592,9.956,1.176,12.547-3.162c8.265-13.834,22.821-22.094,38.937-22.094
			c16.115,0,30.672,8.26,38.937,22.094c1.713,2.868,4.749,4.458,7.864,4.458c1.597,0,3.213-0.418,4.683-1.297
			C421.099,189.553,422.514,183.936,419.923,179.598z"/>
	</g>
</g>
<g>
	<g>
		<path d="M201.371,179.599c-11.6-19.417-32.028-31.007-54.646-31.007s-43.046,11.592-54.646,31.007
			c-2.592,4.338-1.176,9.956,3.162,12.547c4.342,2.592,9.957,1.176,12.547-3.162c8.265-13.834,22.821-22.093,38.937-22.093
			s30.672,8.26,38.937,22.094c1.713,2.868,4.749,4.458,7.864,4.458c1.597,0,3.213-0.418,4.683-1.297
			C202.547,189.554,203.962,183.938,201.371,179.599z"/>
	</g>
</g>
<g>
	<g>
		<path d="M256.005,305.956c-57.602,0-104.463,36.53-104.463,81.431c0,20.633,10.119,31.994,30.075,33.768
			c9.791,0.876,21.309-0.406,34.645-1.89c12.032-1.338,25.67-2.856,39.743-2.856c14.072,0,27.71,1.518,39.743,2.856
			c10.323,1.148,19.556,2.175,27.741,2.175c2.389,0,4.689-0.088,6.9-0.284c19.958-1.775,30.079-13.136,30.079-33.769
			C360.468,342.486,313.606,305.956,256.005,305.956z M297.772,401.079c-12.507-1.393-26.68-2.969-41.767-2.969
			s-29.26,1.576-41.766,2.968c-6.968,0.775-13.373,1.477-19.086,1.827c7.77-14.606,19.193-23.386,31.001-23.386
			c10.327,0,18.226,6.403,23.035,11.775c1.736,1.94,4.215,3.047,6.817,3.047s5.082-1.109,6.817-3.047
			c4.808-5.371,12.706-11.775,23.023-11.775c11.788,0,23.2,8.757,31,23.386C311.136,402.556,304.735,401.854,297.772,401.079z
			 M336.337,401.256c-10.624-24.77-29.78-40.037-50.492-40.037c-10.7,0-20.874,3.872-29.84,11.286
			c-8.968-7.414-19.144-11.286-29.852-11.286c-20.743,0-39.918,15.304-50.484,40.035c-3.977-1.875-5.829-5.675-5.829-13.867
			c0-34.811,38.654-63.132,86.164-63.132s86.164,28.321,86.164,63.132C342.169,395.581,340.315,399.381,336.337,401.256z"/>
	</g>
</g>
<g>
	<g>
		<g>
			<circle cx="156.372" cy="249.014" r="9.15"/>
			<circle cx="374.742" cy="249.014" r="9.15"/>
		</g>
	</g>
</g>
<g>
</g>
<g>
</g>
<g>
</g>
<g>
</g>
<g>
</g>
<g>
</g>
<g>
</g>
<g>
</g>
<g>
</g>
<g>
</g>
<g>
</g>
<g>
</g>
<g>
</g>
<g>
</g>
<g>
</g>
</svg>
