<?xml version="1.0" encoding="iso-8859-1"?>
<!-- Generator: Adobe Illustrator 19.0.0, SVG Export Plug-In . SVG Version: 6.00 Build 0)  -->
<svg version="1.1" id="Layer_1" xmlns="http://www.w3.org/2000/svg" xmlns:xlink="http://www.w3.org/1999/xlink" x="0px" y="0px"
	 viewBox="0 0 512.001 512.001" style="enable-background:new 0 0 512.001 512.001;" xml:space="preserve">
<g>
	<g>
		<path d="M256,0C114.842,0,0.001,114.841,0.001,256.001S114.842,512.001,256,512.001c141.159,0,256.001-114.841,256.001-256.001
			S397.159,0,256,0z M256,493.701c-131.068,0-237.7-106.631-237.7-237.7S124.932,18.299,256,18.299
			c131.069,0,237.702,106.632,237.702,237.702S387.069,493.701,256,493.701z"/>
	</g>
</g>
<g>
	<g>
		<path d="M131.573,169.109c-37.333,0-67.704,30.372-67.704,67.704s30.372,67.704,67.704,67.704s67.704-30.372,67.704-67.704
			S168.905,169.109,131.573,169.109z M131.573,286.217c-27.242,0-49.405-22.163-49.405-49.405s22.163-49.405,49.405-49.405
			c27.242,0,49.405,22.163,49.405,49.405S158.815,286.217,131.573,286.217z"/>
	</g>
</g>
<g>
	<g>
		<path d="M380.429,169.109c-37.333,0-67.704,30.372-67.704,67.704s30.372,67.704,67.704,67.704s67.704-30.372,67.704-67.704
			S417.76,169.109,380.429,169.109z M380.429,286.217c-27.242,0-49.405-22.163-49.405-49.405s22.163-49.405,49.405-49.405
			c27.242,0,49.405,22.163,49.405,49.405S407.67,286.217,380.429,286.217z"/>
	</g>
</g>
<g>
	<g>
		<path d="M318.214,331.632H193.787c-5.053,0-9.15,4.097-9.15,9.15s4.097,9.15,9.15,9.15h124.428c5.053,0,9.15-4.097,9.15-9.15
			S323.267,331.632,318.214,331.632z"/>
	</g>
</g>
<g>
	<g>
		<path d="M284.205,366.398h-56.409c-5.053,0-9.15,4.097-9.15,9.15s4.097,9.15,9.15,9.15h56.409c5.053,0,9.15-4.097,9.15-9.15
			S289.258,366.398,284.205,366.398z"/>
	</g>
</g>
<g>
	<g>
		<circle cx="131.571" cy="236.815" r="20.034"/>
	</g>
</g>
<g>
	<g>
		<circle cx="380.427" cy="236.815" r="20.034"/>
	</g>
</g>
<g>
</g>
<g>
</g>
<g>
</g>
<g>
</g>
<g>
</g>
<g>
</g>
<g>
</g>
<g>
</g>
<g>
</g>
<g>
</g>
<g>
</g>
<g>
</g>
<g>
</g>
<g>
</g>
<g>
</g>
</svg>
